<svg width="32" height="32" viewBox="0 0 32 32" fill="none" xmlns="http://www.w3.org/2000/svg">
<path d="M16.9611 21.0396C16.7738 21.2272 16.5196 21.3327 16.2544 21.3329H15.7478C15.4832 21.3298 15.2301 21.2247 15.0411 21.0396L8.20111 14.1862C8.0749 14.0611 8.00391 13.8907 8.00391 13.7129C8.00391 13.5351 8.0749 13.3647 8.20111 13.2396L9.14777 12.2929C9.27066 12.1675 9.43885 12.0968 9.61444 12.0968C9.79002 12.0968 9.95822 12.1675 10.0811 12.2929L16.0011 18.2262L21.9211 12.2929C22.0463 12.1667 22.2167 12.0957 22.3944 12.0957C22.5722 12.0957 22.7426 12.1667 22.8678 12.2929L23.8011 13.2396C23.9273 13.3647 23.9983 13.5351 23.9983 13.7129C23.9983 13.8907 23.9273 14.0611 23.8011 14.1862L16.9611 21.0396Z" fill="#757575"/>
</svg>
